<?xml version="1.0" encoding="UTF-8"?>
<svg version="1.1" xmlns="http://www.w3.org/2000/svg" xmlns:xlink="http://www.w3.org/1999/xlink">
<defs></defs>
<symbol id="minus" viewBox="0 0 32 32"><path fill="currentColor" fill-rule="evenodd" d="M22 17H10a1.001 1.001 0 0 1 0-2h12a1.001 1.001 0 0 1 0 2ZM16 0C7.163 0 0 7.16 0 16s7.163 16 16 16 16-7.16 16-16S24.837 0 16 0Z"/></symbol>
<symbol id="plus" viewBox="0 0 32 32"><path fill="currentColor" fill-rule="evenodd" d="M22 17h-5v5a1.001 1.001 0 0 1-2 0v-5h-5a1.001 1.001 0 0 1 0-2h5v-5a1.001 1.001 0 0 1 2 0v5h5a1.001 1.001 0 0 1 0 2ZM16 0C7.163 0 0 7.16 0 16s7.163 16 16 16 16-7.16 16-16S24.837 0 16 0Z"/></symbol>
<symbol id="remove" viewBox="0 0 1024 1024"><path fill="currentColor" d="M512 64a448 448 0 1 1 0 896 448 448 0 0 1 0-896zM288 512a38.4 38.4 0 0 0 38.4 38.4h371.2a38.4 38.4 0 0 0 0-76.8H326.4A38.4 38.4 0 0 0 288 512z"/></symbol>
</svg>